<svg
  xmlns="http://www.w3.org/2000/svg"
  viewBox="160 400 675 200"
  fill="none"
  role="img"
  aria-label="KopiX"
  preserveAspectRatio="xMidYMid meet"
>
  <path
    d="M580.978 464.604L592.53 466.737L604.082 464.604V565.904H580.978V464.604ZM592.53 451.986C588.146 451.986 584.533 450.802 581.689 448.432C578.846 445.944 577.424 442.745 577.424 438.835C577.424 434.925 578.846 431.786 581.689 429.416C584.533 426.928 588.146 425.684 592.53 425.684C597.032 425.684 600.646 426.928 603.371 429.416C606.214 431.786 607.636 434.925 607.636 438.835C607.636 442.745 606.214 445.944 603.371 448.432C600.646 450.802 597.032 451.986 592.53 451.986Z"
    fill="white"
  />
  <path
    d="M441.268 465.315H464.371V500.326L463.305 503.88V524.14L464.371 530.36V595.227H441.268V465.315ZM455.486 515.61C457.737 504.946 461.469 495.705 466.682 487.886C471.895 479.947 478.293 473.787 485.875 469.403C493.576 465.019 502.107 462.827 511.467 462.827C521.3 462.827 530.009 465.078 537.591 469.581C545.174 473.964 551.098 480.125 555.363 488.063C559.628 495.883 561.761 505.065 561.761 515.61C561.761 526.036 559.628 535.218 555.363 543.156C551.098 551.094 545.174 557.314 537.591 561.816C530.009 566.2 521.3 568.392 511.467 568.392C502.107 568.392 493.636 566.2 486.053 561.816C478.47 557.433 472.013 551.272 466.682 543.334C461.469 535.396 457.737 526.154 455.486 515.61ZM538.302 515.61C538.302 508.856 536.88 502.932 534.037 497.838C531.312 492.625 527.521 488.596 522.663 485.753C517.805 482.791 512.237 481.31 505.957 481.31C499.678 481.31 493.754 482.791 488.186 485.753C482.736 488.596 477.937 492.625 473.79 497.838C469.644 502.932 466.267 508.856 463.661 515.61C466.267 522.363 469.644 528.346 473.79 533.559C477.937 538.654 482.736 542.682 488.186 545.644C493.754 548.487 499.678 549.909 505.957 549.909C512.237 549.909 517.805 548.487 522.663 545.644C527.521 542.682 531.312 538.654 534.037 533.559C536.88 528.346 538.302 522.363 538.302 515.61Z"
    fill="white"
  />
  <path
    d="M361.176 568.392C348.972 568.392 338.25 566.2 329.009 561.816C319.886 557.314 312.718 551.094 307.505 543.156C302.41 535.218 299.863 526.036 299.863 515.61C299.863 505.065 302.41 495.883 307.505 488.063C312.718 480.125 319.886 473.964 329.009 469.581C338.25 465.078 348.972 462.827 361.176 462.827C373.379 462.827 384.042 465.078 393.165 469.581C402.406 473.964 409.574 480.125 414.669 488.063C419.882 495.883 422.488 505.065 422.488 515.61C422.488 526.036 419.882 535.218 414.669 543.156C409.574 551.094 402.406 557.314 393.165 561.816C384.042 566.2 373.379 568.392 361.176 568.392ZM361.176 550.265C368.995 550.265 375.689 548.843 381.258 545.999C386.945 543.156 391.328 539.187 394.409 534.092C397.489 528.879 399.03 522.718 399.03 515.61C399.03 508.501 397.489 502.399 394.409 497.305C391.328 492.092 386.945 488.063 381.258 485.22C375.689 482.376 368.995 480.955 361.176 480.955C353.474 480.955 346.78 482.376 341.093 485.22C335.406 488.063 331.023 492.092 327.942 497.305C324.862 502.399 323.322 508.501 323.322 515.61C323.322 522.718 324.862 528.879 327.942 534.092C331.023 539.187 335.406 543.156 341.093 545.999C346.78 548.843 353.474 550.265 361.176 550.265Z"
    fill="white"
  />
  <path
    d="M167.638 565.904V432.615H191.096V546.177L183.988 541.734L273.202 432.615H298.616L188.608 565.904H167.638ZM231.083 498.904L247.611 482.732L300.571 565.904H273.735L231.083 498.904Z"
    fill="white"
  />
  <g clip-path="url(#clip0_101_3347)">
    <path
      d="M694.877 499.273L655.72 459.872C651.105 455.222 648.839 449.179 648.839 443.053C648.839 437.011 651.105 430.94 655.72 426.29L667.547 414.372C672.162 409.805 678.158 407.438 684.182 407.438C690.179 407.438 696.286 409.805 700.818 414.372L732.679 446.478L725.964 453.133L694.186 421.111C691.395 418.298 687.83 416.99 684.182 416.99C680.535 416.99 676.97 418.298 674.179 421.111L662.407 432.973C659.644 435.757 658.234 439.461 658.234 443.053C658.234 446.729 659.616 450.432 662.407 453.133L701.481 492.59L723.229 470.565H723.312C727.843 465.998 733.923 463.631 739.947 463.631C745.944 463.631 751.968 465.998 756.582 470.565L778.33 492.59L817.487 453.133C820.195 450.404 821.577 446.729 821.577 443.053C821.577 439.461 820.195 435.785 817.487 432.973L805.66 421.139C802.952 418.326 799.304 417.017 795.739 417.017C792.092 417.017 788.416 418.326 785.736 421.139L756.334 450.683L749.702 444L779.049 414.372C783.663 409.805 789.66 407.438 795.767 407.438C801.764 407.438 807.788 409.805 812.402 414.372L824.147 426.29C828.762 430.94 831.028 436.983 831.028 443.053C831.028 449.179 828.762 455.249 824.147 459.9L785.045 499.273L824.119 538.731C828.734 543.381 831 549.423 831 555.494C831 561.536 828.734 567.69 824.119 572.257L812.375 584.175C807.76 588.741 801.764 591.108 795.739 591.108C789.66 591.108 783.636 588.741 779.021 584.175L739.975 544.69L700.79 584.147C696.258 588.714 690.179 591.081 684.155 591.081C678.158 591.081 672.134 588.714 667.519 584.147L655.692 572.229C651.105 567.662 648.839 561.536 648.839 555.494C648.839 549.451 651.105 543.381 655.72 538.731L694.877 499.273ZM817.515 545.386L749.978 477.331C747.187 474.519 743.539 473.126 739.975 473.126C736.327 473.126 732.652 474.519 729.971 477.331L662.407 545.386C659.616 548.198 658.234 551.79 658.234 555.466C658.234 559.142 659.616 562.734 662.407 565.546L674.151 577.38C676.942 580.193 680.507 581.585 684.155 581.585C687.802 581.585 691.367 580.193 694.158 577.38L739.947 531.24L785.736 577.38C788.444 580.193 792.092 581.585 795.739 581.585C799.304 581.585 802.952 580.193 805.66 577.38L817.487 565.546C820.195 562.734 821.577 559.142 821.577 555.466C821.604 551.79 820.223 548.198 817.515 545.386Z"
      fill="url(#paint0_linear_101_3347)"
    />
  </g>
  <defs>
    <linearGradient
      id="paint0_linear_101_3347"
      x1="662.421"
      y1="409.897"
      x2="812.907"
      y2="580.809"
      gradientUnits="userSpaceOnUse"
    >
      <stop stop-color="#79E0FF" />
      <stop offset="1" stop-color="white" />
    </linearGradient>
    <clipPath id="clip0_101_3347">
      <rect
        width="182.161"
        height="183.642"
        fill="white"
        transform="translate(648.839 407.438)"
      />
    </clipPath>
  </defs>
</svg>
